<?xml version="1.0" encoding="UTF-8"?>
<!DOCTYPE svg PUBLIC "-//W3C//DTD SVG 1.1//EN" "http://www.w3.org/Graphics/SVG/1.1/DTD/svg11.dtd">
<!-- Creator: CorelDRAW 2020 (64-Bit) -->
<svg xmlns="http://www.w3.org/2000/svg" xml:space="preserve" width="210mm" height="297mm" version="1.1" style="shape-rendering:geometricPrecision; text-rendering:geometricPrecision; image-rendering:optimizeQuality; fill-rule:evenodd; clip-rule:evenodd"
viewBox="0 0 21000 29700"
 xmlns:xlink="http://www.w3.org/1999/xlink"
 xmlns:xodm="http://www.corel.com/coreldraw/odm/2003">
 <defs>
  <style type="text/css">
   <![CDATA[
    .fil1 {fill:none}
    .fil0 {fill:black;fill-rule:nonzero}
    .fil2 {fill:#373A3C;fill-rule:nonzero}
   ]]>
  </style>
   <clipPath id="id0">
    <path d="M3518.21 4285.01l2502.86 0 0 -2175.89 -2502.86 0 0 2175.89z"/>
   </clipPath>
 </defs>
 <g id="Layer_x0020_1">
  <metadata id="CorelCorpID_0Corel-Layer"/>
  <g>
  </g>
  <g style="clip-path:url(#id0)">
   <g>
    <path class="fil0" d="M4807.57 2927.9c-302.94,0 -548.53,245.58 -548.53,548.52 0,302.95 245.59,548.54 548.53,548.54 302.94,0 548.53,-245.59 548.53,-548.54 0,-302.94 -245.56,-548.52 -548.53,-548.52zm-1.67 1024.51c-261.11,0 -472.8,-211.69 -472.8,-472.81 0,-261.11 211.69,-472.8 472.8,-472.8 261.12,0 472.81,211.69 472.81,472.8 0,261.14 -211.69,472.81 -472.81,472.81z"/>
    <path class="fil0" d="M4823.44 3253.15c-13.97,0 -27.7,1.01 -41.09,2.94 124.83,33.79 217.65,160.27 217.65,311.24 0,50.59 -10.45,98.4 -29,140.92 71.6,-44.53 118.77,-120.49 118.77,-206.74 0,-137.16 -119.25,-248.36 -266.33,-248.36z"/>
    <path class="fil0" d="M5860.37 2732.98l-615.08 0c-128.37,-79.37 -279.74,-126.05 -441.72,-126.05 -161.97,0 -313.33,46.68 -441.71,126.05l-235.11 0 0 -343.96 -174.2 0 -52.12 -71.01 36.46 -180.08 -158.7 71.68 -152.32 -89.85 22.94 173.32 -130.6 117.21 172.88 31.81 59.98 160.47 5.26 -31.2 0 161.61 -35.66 0c-88,0 -123.09,80.49 -123.09,168.49l0 1134.23c0,88 35.09,152.45 123.09,152.45l686.25 0c118.16,26.46 253.26,99.88 396.65,99.88 143.41,0 278.48,-73.42 396.66,-99.88l660.14 0c88,0 171.37,-64.45 171.37,-152.45l0 -1134.23c0,-88 -83.37,-168.49 -171.37,-168.49zm-1971.74 -286.01l100.85 -31.49 57.9 0 0 264.58 -158.75 0 0 -233.09zm-130.84 -16.14l-19.34 -56.44 -57.87 -11.24 47.34 -41.36 -7.33 -61.28 53.89 30.85 55.94 -26.59 -12.73 76.55 30.06 47.7 -91.42 0 0 23.07 1.46 18.74zm-37.12 1651.52c-12.36,0 9.21,-34.27 9.21,-46.62l0 -1134.26c0,-12.36 -21.57,-36.22 -9.21,-36.22l473.66 0c-142.24,158.75 -229.58,372.63 -229.58,595.46 0,236.03 98.02,436.4 255.45,621.61l-499.53 0 0 0.03zm1082.9 92.1c-395.46,0 -717.22,-321.76 -717.22,-717.24 0,-395.46 321.73,-717.22 717.22,-717.22 395.47,0 717.23,321.76 717.23,717.22 0,395.48 -321.76,717.24 -717.23,717.24zm1069.42 -138.72c0,12.35 -0.26,46.62 -12.62,46.62l-473.42 0c157.43,-185.21 255.46,-385.61 255.46,-621.62 0,-222.82 -87.37,-436.71 -229.58,-595.46l447.57 0c12.35,0 12.62,23.84 12.62,36.22l0 1134.24 -0.03 0z"/>
   </g>
  </g>
  <polygon class="fil1" points="3518.21,4285.01 6021.07,4285.01 6021.07,2109.12 3518.21,2109.12 "/>
  <path class="fil2" d="M2580.15 4460.47c90.49,0 169.07,15.24 235.74,45.72 66.68,29.53 118.11,72.39 154.31,128.59 36.19,55.24 54.29,120.49 54.29,195.74 0,75.25 -18.1,140.49 -54.29,195.74 -36.2,55.24 -87.63,98.1 -154.31,128.58 -66.67,29.53 -145.25,44.3 -235.74,44.3l-174.31 0 0 261.46 -282.89 0 0 -1000.13 457.2 0zm-17.15 515.78c58.11,0 101.92,-12.38 131.45,-37.15 29.53,-25.71 44.29,-61.91 44.29,-108.58 0,-46.67 -14.76,-82.87 -44.29,-108.59 -29.53,-25.71 -73.34,-38.57 -131.45,-38.57l-157.16 0 0 292.89 157.16 0zm1104.86 -302.89c96.21,0 173.36,28.57 231.46,85.72 59.06,57.15 88.58,143.35 88.58,258.6l0 442.92 -271.46 0 0 -398.62c0,-105.73 -42.38,-158.6 -127.16,-158.6 -46.67,0 -84.29,15.24 -112.87,45.72 -27.62,30.48 -41.43,76.2 -41.43,137.16l0 374.34 -271.46 0 0 -1060.14 271.46 0 0 357.19c29.53,-27.62 64.29,-48.58 104.3,-62.86 40,-14.29 82.86,-21.43 128.58,-21.43zm890.26 800.1c-82.87,0 -157.64,-17.15 -224.32,-51.44 -66.67,-34.29 -119.06,-81.91 -157.16,-142.87 -37.15,-60.96 -55.72,-130.02 -55.72,-207.17 0,-76.2 18.57,-144.78 55.72,-205.74 38.1,-60.96 90.01,-108.11 155.74,-141.45 66.67,-34.29 141.92,-51.43 225.74,-51.43 83.82,0 159.07,17.14 225.74,51.43 66.67,33.34 118.58,80.49 155.73,141.45 37.15,60 55.72,128.58 55.72,205.74 0,77.15 -18.57,146.21 -55.72,207.17 -37.15,60.96 -89.06,108.58 -155.73,142.87 -66.67,34.29 -141.92,51.44 -225.74,51.44zm0 -215.75c47.62,0 86.68,-16.19 117.16,-48.57 30.48,-33.34 45.72,-79.06 45.72,-137.16 0,-57.15 -15.24,-101.92 -45.72,-134.31 -30.48,-32.38 -69.54,-48.57 -117.16,-48.57 -47.63,0 -86.68,16.19 -117.16,48.57 -30.48,32.39 -45.72,77.16 -45.72,134.31 0,58.1 15.24,103.82 45.72,137.16 30.48,32.38 69.53,48.57 117.16,48.57zm1097.3 171.45c-22.86,14.29 -50.96,25.25 -84.3,32.87 -32.38,7.62 -67.15,11.43 -104.3,11.43 -100.96,0 -178.59,-24.77 -232.88,-74.3 -54.3,-49.53 -81.44,-123.35 -81.44,-221.46l0 -260.03 -112.87 0 0 -202.88 112.87 0 0 -201.45 271.46 0 0 201.45 177.17 0 0 202.88 -177.17 0 0 257.18c0,27.62 7.14,49.53 21.43,65.72 15.24,15.24 35.24,22.86 60.01,22.86 31.43,0 59.05,-8.1 82.87,-24.29l67.15 190.02zm470.96 44.3c-82.87,0 -157.64,-17.15 -224.32,-51.44 -66.67,-34.29 -119.06,-81.91 -157.16,-142.87 -37.15,-60.96 -55.72,-130.02 -55.72,-207.17 0,-76.2 18.57,-144.78 55.72,-205.74 38.1,-60.96 90.01,-108.11 155.73,-141.45 66.68,-34.29 141.93,-51.43 225.75,-51.43 83.82,0 159.06,17.14 225.74,51.43 66.67,33.34 118.58,80.49 155.73,141.45 37.15,60 55.72,128.58 55.72,205.74 0,77.15 -18.57,146.21 -55.72,207.17 -37.15,60.96 -89.06,108.58 -155.73,142.87 -66.68,34.29 -141.92,51.44 -225.74,51.44zm0 -215.75c47.62,0 86.67,-16.19 117.15,-48.57 30.48,-33.34 45.72,-79.06 45.72,-137.16 0,-57.15 -15.24,-101.92 -45.72,-134.31 -30.48,-32.38 -69.53,-48.57 -117.15,-48.57 -47.63,0 -86.68,16.19 -117.16,48.57 -30.48,32.39 -45.72,77.16 -45.72,134.31 0,58.1 15.24,103.82 45.72,137.16 30.48,32.38 69.53,48.57 117.16,48.57zm1421.63 -21.43l0 224.32 -895.83 0 0 -177.17 504.35 -598.64 -491.49 0 0 -224.32 861.54 0 0 177.17 -504.35 598.64 525.78 0z"/>
 </g>
</svg>
